<?xml version="1.0" encoding="utf-8"?>
<!-- Generator: Adobe Illustrator 14.0.0, SVG Export Plug-In . SVG Version: 6.00 Build 43363)  -->
<!DOCTYPE svg PUBLIC "-//W3C//DTD SVG 1.1//EN" "http://www.w3.org/Graphics/SVG/1.1/DTD/svg11.dtd">
<svg version="1.1" id="Calque_1" xmlns="http://www.w3.org/2000/svg" xmlns:xlink="http://www.w3.org/1999/xlink" x="0px" y="0px"
	 width="841.89px" height="595.28px" viewBox="0 0 841.89 595.28" enable-background="new 0 0 841.89 595.28" xml:space="preserve">
<ellipse fill="#FFFFFF" stroke="#000000" cx="421.058" cy="293.937" rx="121.126" ry="121.747"/>
<g>
	<ellipse fill="#FFFFFF" cx="420.891" cy="293.603" rx="73.5" ry="73.001"/>
	<path d="M420.891,367.104c-40.804,0-74-32.973-74-73.501s33.196-73.5,74-73.5c40.804,0,74,32.972,74,73.5
		S461.695,367.104,420.891,367.104L420.891,367.104z M420.891,221.103c-40.252,0-73,32.523-73,72.5
		c0,39.978,32.748,72.501,73,72.501s73-32.523,73-72.501C493.891,253.626,461.144,221.103,420.891,221.103L420.891,221.103z"/>
</g>
<ellipse fill="#FFFFFF" stroke="#000000" stroke-width="0.25" cx="420.891" cy="293.602" rx="68.25" ry="67.996"/>
<ellipse fill="#15120A" cx="420.891" cy="293.604" rx="59.083" ry="58.416"/>
<g>
	<path fill="#FFFFFF" d="M466.381,351.038c2.406-1.625,12.219-11.062,14.071-14.652c0,0,12.71,12.465,22.585,24.777
		c8.861,11.048-3.025,22.1-14.945,12.105C478.35,365.101,466.381,351.038,466.381,351.038z"/>
	<path d="M497.498,377.677c-3.223,0-6.588-1.392-9.729-4.025c-9.662-8.101-21.649-22.148-21.77-22.289l-0.362-0.426l0.464-0.312
		c2.342-1.582,12.07-10.909,13.906-14.468l0.311-0.515l0.484,0.387c0.127,0.125,12.844,12.627,22.625,24.822
		c3.202,3.993,4.054,8.337,2.335,11.918C504.311,375.796,501.143,377.677,497.498,377.677L497.498,377.677z M467.113,351.123
		c2.047,2.372,12.627,14.491,21.299,21.763c2.959,2.479,6.101,3.791,9.086,3.791c3.307,0,6.059-1.623,7.363-4.341
		c1.545-3.221,0.738-7.179-2.215-10.86c-8.693-10.84-19.721-21.928-22.086-24.278C478.188,340.971,469.951,348.939,467.113,351.123
		L467.113,351.123z"/>
</g>
<path fill="#790033" d="M488.133,373.978c-18.22,15.412-41.871,24.709-67.241,24.709l0,0c-57.398,0-104.094-46.99-104.094-104.75
	s46.696-104.75,104.094-104.75c50.503,0,93.595,36.252,102.465,86.198l-1.969,0.35c-8.7-48.99-50.965-84.548-100.496-84.548
	c-56.295,0-102.094,46.094-102.094,102.75s45.799,102.75,102.094,102.75c24.765,0,47.884-9.06,65.717-24.046"/>
<path fill="#790033" d="M500.816,357.668c10.313-13.03,17.574-28.732,20.617-46.122l1.971,0.346
	c-3.129,17.875-10.629,34.001-21.281,47.351"/>
<g>
	<path fill="#790033" d="M510.58,297.031l0.682-2.303l3.179,0.001c-0.022-0.444-0.034-0.898-0.033-1.363
		c0-0.399,0.012-0.8,0.034-1.2h-3.861l0.681-2.304h3.44c0.367-1.979,1.053-3.692,2.059-5.143c1.688-2.442,4.018-3.665,6.991-3.665
		c2.53,0,4.495,0.795,5.896,2.385c1.399,1.59,2.175,3.396,2.327,5.418l-2.645-0.002c-0.291-1.533-0.887-2.75-1.783-3.648
		c-0.898-0.897-2.152-1.346-3.764-1.346c-1.979,0-3.574,0.827-4.785,2.48c-0.67,0.908-1.15,2.082-1.444,3.521h9.052l-0.682,2.303
		h-8.693c-0.033,0.553-0.049,1.137-0.049,1.752c-0.001,0.281,0.006,0.552,0.016,0.812h9.408l-0.682,2.303l-8.482,0.001
		c0.26,1.416,0.718,2.644,1.379,3.683c1.092,1.729,2.725,2.595,4.898,2.594c2,0.001,3.525-0.913,4.574-2.741
		c0.552-0.963,0.961-2.228,1.232-3.796l2.643,0.001c-0.236,2.509-1.021,4.612-2.351,6.308c-1.591,2.046-3.731,3.068-6.423,3.068
		c-2.325-0.001-4.277-0.84-5.855-2.514c-1.492-1.578-2.449-3.78-2.873-6.603L510.58,297.031z"/>
</g>
<path opacity="0.2" fill="#AAA096" d="M347,297.74c0.663,24.751,21.913,64.063,64.413,68.813
	c33.377,3.73,53.125-13.688,54.812-14.812c0,0,14.136,16.543,23.062,23.188c8.312,6.188,16.832,1.438,17.346-5.25
	c0,0-0.658,8.938-3.096,12.75s-42.812,42.484-106.844,30.469c-26.922-5.052-53.666-24.786-56.802-29.158
	c-3.417-4.764-3.315-11.502-2.479-30.264C338.476,329.599,347,297.74,347,297.74z"/>
</svg>
