<?xml version="1.0" encoding="UTF-8" standalone="no"?>
<!-- Generator: Adobe Illustrator 14.0.0, SVG Export Plug-In . SVG Version: 6.00 Build 43363)  -->

<svg
   xmlns:dc="http://purl.org/dc/elements/1.1/"
   xmlns:cc="http://creativecommons.org/ns#"
   xmlns:rdf="http://www.w3.org/1999/02/22-rdf-syntax-ns#"
   xmlns:svg="http://www.w3.org/2000/svg"
   xmlns="http://www.w3.org/2000/svg"
   xmlns:xlink="http://www.w3.org/1999/xlink"
   xmlns:sodipodi="http://sodipodi.sourceforge.net/DTD/sodipodi-0.dtd"
   xmlns:inkscape="http://www.inkscape.org/namespaces/inkscape"
   version="1.1"
   id="Calque_1"
   x="0px"
   y="0px"
   width="841.89px"
   height="595.28px"
   viewBox="0 0 841.89 595.28"
   enable-background="new 0 0 841.89 595.28"
   xml:space="preserve"
   inkscape:version="0.48.4 r9939"
   sodipodi:docname="logo2.svg"
   inkscape:export-filename="/home/blouze/Workspace/meteor/ptit-noir/public/img/logo.png"
   inkscape:export-xdpi="300"
   inkscape:export-ydpi="300"><metadata
     id="metadata35"><rdf:RDF><cc:Work
         rdf:about=""><dc:format>image/svg+xml</dc:format><dc:type
           rdf:resource="http://purl.org/dc/dcmitype/StillImage" /><dc:title></dc:title></cc:Work></rdf:RDF></metadata><defs
     id="defs33"><linearGradient
       id="linearGradient3831"><stop
         style="stop-color:#1f1f1f;stop-opacity:1;"
         offset="0"
         id="stop3833" /><stop
         style="stop-color:#1f1f1f;stop-opacity:0;"
         offset="1"
         id="stop3835" /></linearGradient><linearGradient
       id="linearGradient5276"><stop
         style="stop-color:#000000;stop-opacity:1;"
         offset="0"
         id="stop5278" /><stop
         style="stop-color:#1e1e1e;stop-opacity:1;"
         offset="0.72222221"
         id="stop3847" /><stop
         style="stop-color:#1e1e1e;stop-opacity:0;"
         offset="1"
         id="stop5280" /></linearGradient><radialGradient
       inkscape:collect="always"
       xlink:href="#linearGradient5276"
       id="radialGradient5290"
       cx="420.89099"
       cy="293.60349"
       fx="420.89099"
       fy="293.60349"
       r="74.5"
       gradientTransform="matrix(1,0,0,0.9932953,0,1.9685228)"
       gradientUnits="userSpaceOnUse" /><radialGradient
       inkscape:collect="always"
       xlink:href="#linearGradient5276"
       id="radialGradient5308"
       gradientUnits="userSpaceOnUse"
       gradientTransform="matrix(1,0,0,0.9932953,0,1.9685228)"
       cx="420.89099"
       cy="293.60349"
       fx="420.89099"
       fy="293.60349"
       r="74.5" /><radialGradient
       inkscape:collect="always"
       xlink:href="#linearGradient5276"
       id="radialGradient5310"
       gradientUnits="userSpaceOnUse"
       gradientTransform="matrix(1,0,0,0.9932953,0,1.9685228)"
       cx="420.89099"
       cy="293.60349"
       fx="420.89099"
       fy="293.60349"
       r="74.5" /><radialGradient
       inkscape:collect="always"
       xlink:href="#linearGradient5276"
       id="radialGradient5312"
       gradientUnits="userSpaceOnUse"
       gradientTransform="matrix(1,0,0,0.9932953,0,1.9685228)"
       cx="420.89099"
       cy="293.60349"
       fx="420.89099"
       fy="293.60349"
       r="74.5" /><radialGradient
       inkscape:collect="always"
       xlink:href="#linearGradient5276"
       id="radialGradient5314"
       gradientUnits="userSpaceOnUse"
       gradientTransform="matrix(1,0,0,0.9932953,0,1.9685228)"
       cx="420.89099"
       cy="293.60349"
       fx="420.89099"
       fy="293.60349"
       r="74.5" /><radialGradient
       inkscape:collect="always"
       xlink:href="#linearGradient5276"
       id="radialGradient5316"
       gradientUnits="userSpaceOnUse"
       gradientTransform="matrix(1,0,0,0.9932953,0,1.9685228)"
       cx="420.89099"
       cy="293.60349"
       fx="420.89099"
       fy="293.60349"
       r="74.5" /><radialGradient
       inkscape:collect="always"
       xlink:href="#linearGradient5276"
       id="radialGradient5318"
       gradientUnits="userSpaceOnUse"
       gradientTransform="matrix(1,0,0,0.9932953,0,1.9685228)"
       cx="420.89099"
       cy="293.60349"
       fx="420.89099"
       fy="293.60349"
       r="74.5" /><radialGradient
       inkscape:collect="always"
       xlink:href="#linearGradient5276"
       id="radialGradient3839"
       cx="420.89099"
       cy="293.60349"
       fx="420.89099"
       fy="293.60349"
       r="74.5"
       gradientTransform="matrix(1,0,0,0.9932953,0,1.9685228)"
       gradientUnits="userSpaceOnUse" /><radialGradient
       inkscape:collect="always"
       xlink:href="#linearGradient5276"
       id="radialGradient3849"
       gradientUnits="userSpaceOnUse"
       gradientTransform="matrix(1,0,0,0.9932953,0,1.9685228)"
       cx="420.89099"
       cy="293.60349"
       fx="420.89099"
       fy="293.60349"
       r="74.5" /><radialGradient
       inkscape:collect="always"
       xlink:href="#linearGradient5276"
       id="radialGradient3851"
       gradientUnits="userSpaceOnUse"
       gradientTransform="matrix(1,0,0,0.9932953,0,1.9685228)"
       cx="420.89099"
       cy="293.60349"
       fx="420.89099"
       fy="293.60349"
       r="74.5" /><radialGradient
       inkscape:collect="always"
       xlink:href="#linearGradient5276"
       id="radialGradient3853"
       gradientUnits="userSpaceOnUse"
       gradientTransform="matrix(1,0,0,0.9932953,0,1.9685228)"
       cx="420.89099"
       cy="293.60349"
       fx="420.89099"
       fy="293.60349"
       r="74.5" /></defs><sodipodi:namedview
     pagecolor="#ffffff"
     bordercolor="#666666"
     borderopacity="1"
     objecttolerance="10"
     gridtolerance="10"
     guidetolerance="10"
     inkscape:pageopacity="0"
     inkscape:pageshadow="2"
     inkscape:window-width="1680"
     inkscape:window-height="1004"
     id="namedview31"
     showgrid="false"
     inkscape:zoom="1.1213358"
     inkscape:cx="324.97063"
     inkscape:cy="329.23712"
     inkscape:window-x="0"
     inkscape:window-y="0"
     inkscape:window-maximized="1"
     inkscape:current-layer="Calque_1" /><ellipse
     cx="421.058"
     cy="293.937"
     rx="121.126"
     ry="121.747"
     id="ellipse3"
     style="stroke:#1e1e1e;stroke-opacity:1"
     stroke="#000000"
     fill="#FFFFFF" /><g
     id="g3816"
     style="fill:url(#radialGradient3853);fill-opacity:1.0;stroke:none;stroke-opacity:1"
     transform="matrix(1.1093179,0,0,1.09992,-46.010892,-29.336864)"><ellipse
       id="ellipse3818"
       ry="73.000999"
       rx="73.5"
       cy="293.603"
       cx="420.89099"
       style="fill:url(#radialGradient3849);fill-opacity:1.0;stroke:none;stroke-opacity:1"
       d="m 494.39099,293.603 c 0,40.31734 -32.90707,73.001 -73.5,73.001 -40.59293,0 -73.5,-32.68366 -73.5,-73.001 0,-40.31734 32.90707,-73.001 73.5,-73.001 40.59293,0 73.5,32.68366 73.5,73.001 z"
       sodipodi:cx="420.89099"
       sodipodi:cy="293.603"
       sodipodi:rx="73.5"
       sodipodi:ry="73.000999" /><path
       id="path3820"
       d="m 420.891,367.104 c -40.804,0 -74,-32.973 -74,-73.501 0,-40.528 33.196,-73.5 74,-73.5 40.804,0 74,32.972 74,73.5 0,40.528 -33.196,73.501 -74,73.501 l 0,0 z m 0,-146.001 c -40.252,0 -73,32.523 -73,72.5 0,39.978 32.748,72.501 73,72.501 40.252,0 73,-32.523 73,-72.501 0,-39.977 -32.747,-72.5 -73,-72.5 l 0,0 z"
       style="fill:url(#radialGradient3851);fill-opacity:1.0;stroke:none;stroke-opacity:1"
       inkscape:connector-curvature="0" /></g><g
     id="g5"
     style="stroke:#1f1f1f;stroke-opacity:1"><ellipse
       cx="420.891"
       cy="293.603"
       rx="73.5"
       ry="73.001"
       id="ellipse7"
       style="stroke:#1f1f1f;stroke-opacity:1"
       fill="#FFFFFF"
       d="m 494.39099,293.603 c 0,40.31734 -32.90707,73.001 -73.5,73.001 -40.59293,0 -73.5,-32.68366 -73.5,-73.001 0,-40.31734 32.90707,-73.001 73.5,-73.001 40.59293,0 73.5,32.68366 73.5,73.001 z" /><path
       d="M420.891,367.104c-40.804,0-74-32.973-74-73.501s33.196-73.5,74-73.5c40.804,0,74,32.972,74,73.5   S461.695,367.104,420.891,367.104L420.891,367.104z M420.891,221.103c-40.252,0-73,32.523-73,72.5   c0,39.978,32.748,72.501,73,72.501s73-32.523,73-72.501C493.891,253.626,461.144,221.103,420.891,221.103L420.891,221.103z"
       id="path9"
       style="stroke:#1f1f1f;stroke-opacity:1" /></g><ellipse
     fill="#15120A"
     cx="420.891"
     cy="293.604"
     rx="59.083"
     ry="58.416"
     id="ellipse13" /><path
     d="m 483.12538,367.16368 c -16.78655,14.09989 -38.57683,22.60538 -61.95086,22.60538 l 0,0 c -52.88226,0 -95.90448,-42.98948 -95.90448,-95.83206 0,-52.84258 43.02222,-95.83206 95.90448,-95.83206 46.52971,0 86.23148,33.16567 94.40364,78.85949 l -1.81409,0.3202 c -8.01553,-44.81921 -46.95537,-77.34997 -92.58955,-77.34997 -51.86603,0 -94.06183,42.16977 -94.06183,94.00234 0,51.83257 42.1958,94.00234 94.06183,94.00234 22.81663,0 44.11676,-8.28868 60.54676,-21.99884"
     id="path21"
     inkscape:connector-curvature="0"
     style="fill:#790033" /><g
     id="g15"><path
       fill="#FFFFFF"
       d="M466.381,351.038c2.406-1.625,12.219-11.062,14.071-14.652c0,0,12.71,12.465,22.585,24.777   c8.861,11.048-3.025,22.1-14.945,12.105C478.35,365.101,466.381,351.038,466.381,351.038z"
       id="path17" /><path
       d="M497.498,377.677c-3.223,0-6.588-1.392-9.729-4.025c-9.662-8.101-21.649-22.148-21.77-22.289l-0.362-0.426l0.464-0.312   c2.342-1.582,12.07-10.909,13.906-14.468l0.311-0.515l0.484,0.387c0.127,0.125,12.844,12.627,22.625,24.822   c3.202,3.993,4.054,8.337,2.335,11.918C504.311,375.796,501.143,377.677,497.498,377.677L497.498,377.677z M467.113,351.123   c2.047,2.372,12.627,14.491,21.299,21.763c2.959,2.479,6.101,3.791,9.086,3.791c3.307,0,6.059-1.623,7.363-4.341   c1.545-3.221,0.738-7.179-2.215-10.86c-8.693-10.84-19.721-21.928-22.086-24.278C478.188,340.971,469.951,348.939,467.113,351.123   L467.113,351.123z"
       id="path19" /></g><path
     d="m 494.81056,352.24223 c 9.50163,-11.92068 16.19138,-26.28588 18.99497,-42.19538 l 1.81593,0.31654 c -2.88283,16.35321 -9.79277,31.10631 -19.60673,43.31976"
     id="path23"
     inkscape:connector-curvature="0"
     style="fill:#790033" /><g
     id="g25"
     transform="matrix(0.92132573,0,0,0.91486458,33.395889,25.02445)"><path
       d="m 510.58,297.031 0.682,-2.303 3.179,10e-4 c -0.022,-0.444 -0.034,-0.898 -0.033,-1.363 0,-0.399 0.012,-0.8 0.034,-1.2 h -3.861 l 0.681,-2.304 h 3.44 c 0.367,-1.979 1.053,-3.692 2.059,-5.143 1.688,-2.442 4.018,-3.665 6.991,-3.665 2.53,0 4.495,0.795 5.896,2.385 1.399,1.59 2.175,3.396 2.327,5.418 l -2.645,-0.002 c -0.291,-1.533 -0.887,-2.75 -1.783,-3.648 -0.898,-0.897 -2.152,-1.346 -3.764,-1.346 -1.979,0 -3.574,0.827 -4.785,2.48 -0.67,0.908 -1.15,2.082 -1.444,3.521 h 9.052 l -0.682,2.303 h -8.693 c -0.033,0.553 -0.049,1.137 -0.049,1.752 -10e-4,0.281 0.006,0.552 0.016,0.812 h 9.408 l -0.682,2.303 -8.482,0.001 c 0.26,1.416 0.718,2.644 1.379,3.683 1.092,1.729 2.725,2.595 4.898,2.594 2,10e-4 3.525,-0.913 4.574,-2.741 0.552,-0.963 0.961,-2.228 1.232,-3.796 l 2.643,10e-4 c -0.236,2.509 -1.021,4.612 -2.351,6.308 -1.591,2.046 -3.731,3.068 -6.423,3.068 -2.325,-10e-4 -4.277,-0.84 -5.855,-2.514 -1.492,-1.578 -2.449,-3.78 -2.873,-6.603 l -4.086,-0.002 z"
       id="path27"
       inkscape:connector-curvature="0"
       style="fill:#790033" /></g><path
     opacity="0.2"
     fill="#AAA096"
     d="M347,297.74c0.663,24.751,21.913,64.063,64.413,68.813  c33.377,3.73,53.125-13.688,54.812-14.812c0,0,14.136,16.543,23.062,23.188c8.312,6.188,16.832,1.438,17.346-5.25  c0,0-0.658,8.938-3.096,12.75s-42.812,42.484-106.844,30.469c-26.922-5.052-53.666-24.786-56.802-29.158  c-3.417-4.764-3.315-11.502-2.479-30.264C338.476,329.599,347,297.74,347,297.74z"
     id="path29" /></svg>